<?xml version="1.0" encoding="UTF-8" standalone="no"?>
<!-- Created with Inkscape (http://www.inkscape.org/) -->

<svg
   width="1366.0006"
   height="768"
   viewBox="0 0 361.421 203.20001"
   version="1.1"
   id="svg5"
   inkscape:version="1.1.2 (0a00cf5339, 2022-02-04)"
   sodipodi:docname="wallpaper tiger orange dimension.svg"
   xmlns:inkscape="http://www.inkscape.org/namespaces/inkscape"
   xmlns:sodipodi="http://sodipodi.sourceforge.net/DTD/sodipodi-0.dtd"
   xmlns:xlink="http://www.w3.org/1999/xlink"
   xmlns="http://www.w3.org/2000/svg"
   xmlns:svg="http://www.w3.org/2000/svg">
  <sodipodi:namedview
     id="namedview7"
     pagecolor="#ffffff"
     bordercolor="#666666"
     borderopacity="1.0"
     inkscape:pageshadow="2"
     inkscape:pageopacity="0.0"
     inkscape:pagecheckerboard="0"
     inkscape:document-units="mm"
     showgrid="false"
     units="px"
     width="1366px"
     inkscape:snap-page="true"
     inkscape:snap-global="true"
     inkscape:zoom="0.32"
     inkscape:cx="693.75"
     inkscape:cy="646.875"
     inkscape:window-width="1366"
     inkscape:window-height="695"
     inkscape:window-x="0"
     inkscape:window-y="0"
     inkscape:window-maximized="1"
     inkscape:current-layer="layer1" />
  <defs
     id="defs2">
    <linearGradient
       inkscape:collect="always"
       id="linearGradient22130">
      <stop
         style="stop-color:#ff6309;stop-opacity:1"
         offset="0"
         id="stop22124" />
      <stop
         style="stop-color:#f7931e;stop-opacity:1"
         offset="1"
         id="stop22128" />
    </linearGradient>
    <linearGradient
       inkscape:collect="always"
       id="linearGradient11377">
      <stop
         style="stop-color:#ff0d03;stop-opacity:1;"
         offset="0"
         id="stop11373" />
      <stop
         style="stop-color:#ff9c2a;stop-opacity:0.65437204"
         offset="0.39063403"
         id="stop15592" />
      <stop
         style="stop-color:#ffba55;stop-opacity:1"
         offset="1"
         id="stop11375" />
    </linearGradient>
    <linearGradient
       inkscape:collect="always"
       xlink:href="#linearGradient11377"
       id="linearGradient11379"
       x1="628.8335"
       y1="296.8327"
       x2="891.40247"
       y2="296.8327"
       gradientUnits="userSpaceOnUse" />
    <linearGradient
       inkscape:collect="always"
       xlink:href="#linearGradient22130"
       id="linearGradient21900"
       x1="621.27838"
       y1="374.09311"
       x2="672.21484"
       y2="374.09311"
       gradientUnits="userSpaceOnUse" />
  </defs>
  <g
     inkscape:label="Camada 1"
     inkscape:groupmode="layer"
     id="layer1"
     transform="translate(-41.275123,-95.274669)">
    <g
       id="g15979">
      <g
         id="g26284"
         transform="translate(-580.00311,-99.958041)">
        <path
           id="rect1518"
           style="fill:#fc9e29;fill-opacity:1;stroke-width:1.16275"
           d="m 621.27841,195.23271 v 203.2 h 361.42083 v -203.2 z" />
        <path
           id="rect1384"
           style="fill:#f7821e;fill-opacity:1;stroke-width:0.931606"
           d="M 621.27841,266.35446 V 324.939 l 76.90178,73.49371 h 61.30168 z" />
        <path
           id="rect1488"
           style="fill:#ff5f09;fill-opacity:1;stroke-width:2.44429"
           d="m 2286.7285,434.75781 -94.5898,98.97852 v 32.04883 l 375.1054,358.48046 110.5977,-115.72851 z"
           transform="matrix(0.26458333,0,0,0.26458333,41.274876,95.274574)" />
        <path
           id="rect1490"
           style="fill:url(#linearGradient21900);fill-opacity:1;stroke-width:0.646718"
           d="m 621.27841,349.7535 v 48.67921 h 50.93641 z" />
        <rect
           style="fill:#f9f06b;fill-opacity:1;stroke-width:0.512937"
           id="rect1492"
           width="42.353725"
           height="90.044937"
           x="-755.68311"
           y="310.97571"
           transform="rotate(-136.29818)" />
        <path
           id="rect1494"
           style="fill:#f7af1e;fill-opacity:1;stroke-width:0.931606"
           d="m 659.79594,195.23271 -2.58278,2.70267 209.79548,200.49733 h 9.44335 61.90954 l -222.67492,-203.2 z"
           sodipodi:nodetypes="ccccccc" />
        <path
           id="rect1466"
           style="fill:url(#linearGradient11379);fill-opacity:1;stroke-width:1.50611"
           d="m 759.69115,195.23271 -130.85765,136.92653 69.34669,66.27347 h 63.96974 l 192.00288,-203.2 H 820.2983 Z"
           sodipodi:nodetypes="ccccccc" />
      </g>
      <circle
         style="fill:#ffba55;fill-opacity:1;stroke-width:2.53935"
         id="path1091"
         cx="221.98563"
         cy="196.87466"
         r="49.135555" />
      <g
         id="g1838"
         transform="matrix(0.28475702,0,0,0.28475702,291.22819,161.20394)">
        <path
           style="fill:#f59412;fill-opacity:1;stroke:none;stroke-width:0.269002px;stroke-linecap:butt;stroke-linejoin:miter;stroke-opacity:1"
           d="m -278.34976,179.67844 c -27.25443,-13.58387 -29.32197,-53.79082 -21.19335,-88.017747 19.2888,-24.438311 46.54666,-37.881223 57.00426,-37.854509 9.80637,-0.07731 37.47865,14.374148 54.10903,37.33842 7.96315,19.099626 12.07485,70.212466 -18.13914,87.084626 l -37.46225,-15.94214 z"
           id="path16525"
           sodipodi:nodetypes="ccccccc" />
        <path
           id="path13338"
           style="fill:#d16a01;fill-opacity:1;stroke:none;stroke-width:0.269002px;stroke-linecap:butt;stroke-linejoin:miter;stroke-opacity:1"
           d="m -176.62836,37.353457 c -0.52111,2.69e-4 -1.12631,0.184635 -1.80632,0.584239 -12.41615,7.791423 -24.08739,17.634833 -35.28506,28.78066 5.07401,4.128941 7.00416,9.260675 10.39074,14.035949 2.49584,3.437445 5.81675,5.555755 9.12142,7.879887 2.78876,1.929048 6.26136,4.526457 8.28496,10.115447 7.45227,-1.984478 9.21421,-7.866469 11.22245,-13.579381 1.58717,-5.542553 2.97648,-13.064177 7.20948,-19.325636 3.52289,-5.333683 2.24187,-13.6035 -4.08916,-22.240006 l -3.16498,-0.62995 c 0.7601,-3.276566 -0.0223,-5.622613 -1.88353,-5.621209 z" />
        <path
           id="path12402"
           style="fill:#d16a01;fill-opacity:1;stroke:none;stroke-width:0.269002px;stroke-linecap:butt;stroke-linejoin:miter;stroke-opacity:1"
           d="m -309.69905,37.353457 c -1.86107,-0.0013 -2.64363,2.344643 -1.88354,5.621209 l -3.16499,0.62995 c -6.33103,8.636506 -7.61204,16.906323 -4.08916,22.240006 4.23303,6.261459 5.62232,13.783083 7.20949,19.325636 1.95118,5.550553 3.67166,11.259023 10.60249,13.399171 2.03251,-5.464241 5.45978,-8.027142 8.21824,-9.935237 3.30467,-2.324132 6.62505,-4.442442 9.12086,-7.879887 3.4329,-4.840566 5.82721,-9.891436 11.06851,-14.045407 -11.19476,-11.141954 -22.86243,-20.981974 -35.27506,-28.771202 -0.68002,-0.399604 -1.28574,-0.583846 -1.80684,-0.584239 z" />
        <path
           style="fill:#000000;stroke:none;stroke-width:0.0660857;stroke-linecap:butt;stroke-linejoin:miter;stroke-miterlimit:4;stroke-dasharray:none;stroke-opacity:1"
           d="m -216.58015,81.070332 c -4.15626,-8.250517 -12.97616,-11.325721 -23.48928,-10.039315 3.30166,2.100604 7.5711,2.916909 13.48613,4.878287 3.46644,1.197176 7.08185,2.486704 10.00315,5.161028 z"
           id="path11031"
           sodipodi:nodetypes="cccc" />
        <path
           style="fill:#000000;stroke:none;stroke-width:0.0660857;stroke-linecap:butt;stroke-linejoin:miter;stroke-miterlimit:4;stroke-dasharray:none;stroke-opacity:1"
           d="m -198.40264,106.55121 c -10.10235,-7.861449 -27.78311,-9.267987 -24.63465,15.88671 l 3.24514,5.06132 c -1.5284,-4.51659 -1.44749,-8.30954 0.82279,-11.11801 7.64677,0.31408 12.17732,-1.15936 14.79446,-9.79499 1.75659,0.32182 3.51618,0.63769 5.77226,-0.035 z"
           id="path9580"
           sodipodi:nodetypes="cccccc" />
        <path
           style="fill:#000000;stroke:none;stroke-width:0.0660857;stroke-linecap:butt;stroke-linejoin:miter;stroke-miterlimit:4;stroke-dasharray:none;stroke-opacity:1"
           d="m -288.27708,106.55121 c 10.10235,-7.861449 27.78311,-9.267987 24.63465,15.88671 l -3.24514,5.06132 c 1.5284,-4.51659 1.44749,-8.30954 -0.82278,-11.11801 -7.64678,0.31408 -12.17733,-1.15936 -14.79447,-9.79499 -1.75659,0.32182 -3.51618,0.63769 -5.77226,-0.035 z"
           id="path9023"
           sodipodi:nodetypes="cccccc" />
        <path
           style="fill:#d16a01;fill-opacity:1;stroke:none;stroke-width:0.0660857;stroke-linecap:butt;stroke-linejoin:miter;stroke-miterlimit:4;stroke-dasharray:none;stroke-opacity:1"
           d="m -232.87539,89.632686 3.60978,9.187996 4.20421,13.266518 2.69632,13.21158 7.61457,10.60239 c 5.77197,5.69681 13.13789,10.15711 16.50615,17.58992 4.42895,10.77405 2.42324,19.67261 -6.28351,27.54054 -9.02185,7.13986 -20.17498,6.39376 -31.30512,-2.38308 -7.28219,-5.49877 -7.53116,-5.51768 -14.72587,-0.0159 -7.33139,5.66325 -15.37744,9.35199 -26.10042,5.64466 -9.03174,-4.22733 -12.56056,-9.22144 -13.81339,-17.24915 -2.18312,-17.95608 14.34611,-25.03927 23.88898,-36.31203 l 6.90713,-17.7998 5.11359,-21.618365 1.17079,-5.86516 1.88082,-5.668631 0.53068,-1.802727 2.09033,-1.525909 4.95908,3.337448 z"
           id="path7570"
           sodipodi:nodetypes="cccccccccccccccccccc" />
        <path
           style="fill:#000000;stroke:none;stroke-width:0.0660857;stroke-linecap:butt;stroke-linejoin:miter;stroke-miterlimit:4;stroke-dasharray:none;stroke-opacity:1"
           d="m -257.60269,165.30705 c -13.5429,3.95872 -25.69218,3.50552 -24.2793,-13.72819 0.76229,4.89354 2.06893,11.1741 6.67413,11.35923 6.21233,0.26813 12.74948,0.0437 17.60517,2.36896 z"
           id="path6424"
           sodipodi:nodetypes="cccc" />
        <path
           style="fill:#000000;stroke:none;stroke-width:0.0660857;stroke-linecap:butt;stroke-linejoin:miter;stroke-miterlimit:4;stroke-dasharray:none;stroke-opacity:1"
           d="m -254.29853,173.47397 c -7.17078,-0.41075 -20.86188,13.93539 -29.30672,-5.94485 3.32924,3.50277 6.35926,7.75841 11.1697,7.53451 4.3451,-0.1938 12.19178,-4.36402 18.13702,-1.58966 z"
           id="path7069"
           sodipodi:nodetypes="cccc" />
        <path
           style="fill:#65686d;fill-opacity:1;stroke:none;stroke-width:0.0660857;stroke-linecap:butt;stroke-linejoin:miter;stroke-miterlimit:4;stroke-dasharray:none;stroke-opacity:1"
           d="m -261.24241,121.92162 0.41783,15.18917 c -4.15619,4.63985 -5.7525,13.36557 -6.04652,17.26793 -0.0967,7.05672 -1.89387,13.83637 -3.39854,20.66368 -1.05961,4.29411 -3.75079,2.45369 -4.61807,-0.78373 -1.77437,-6.95604 -0.63928,-16.81649 1.96944,-25.22474 l 1.46043,-4.90172 3.40556,-10.44792 z"
           id="path4580"
           sodipodi:nodetypes="ccccccccc" />
        <path
           style="fill:#2a2d34;fill-opacity:1;stroke:none;stroke-width:0.0660857;stroke-linecap:butt;stroke-linejoin:miter;stroke-miterlimit:4;stroke-dasharray:none;stroke-opacity:1"
           d="m -272.91827,149.03393 c 1.00404,-5.39705 1.96956,-11.63392 3.69932,-16.13865 1.48739,-3.87977 2.74407,-7.36141 4.54048,-11.77699 1.93961,-4.8878 4.01552,-9.7756 4.63763,-14.6634 0.58547,-5.0655 5.28453,-15.877453 7.53224,-25.769543 1.00844,-4.237566 4.64319,-9.692236 12.71531,-9.23997 5.72664,0.372582 8.85173,2.842371 12.16253,5.025449 -4.94806,5.591659 -4.90526,9.304837 -5.24463,13.16186 -7.41333,0.715088 -13.83528,0.04717 -14.90575,-8.086132 -0.46297,-3.793505 -2.624,-4.364634 -3.46206,-1.39745 l -2.22222,8.677035 c -0.39472,2.358412 0.67345,3.913154 2.79278,3.74494 1.12276,-0.148845 2.22164,0.353152 1.91194,1.181511 -1.64049,4.520455 -5.82307,10.3099 -7.62431,14.06232 -0.88846,1.81549 -0.93895,3.63098 -1.20934,5.44646 -0.60477,4.9414 -3.11019,11.04101 -5.62365,15.43356 -3.43289,6.75315 -7.17437,13.46526 -9.70027,20.339 z"
           id="path869"
           sodipodi:nodetypes="ccccccccccccccccc" />
        <path
           style="fill:#373945;fill-opacity:1;stroke:none;stroke-width:0.269002px;stroke-linecap:butt;stroke-linejoin:miter;stroke-opacity:1"
           d="m -227.57176,76.683369 c -4.03754,4.082577 -4.55478,7.402118 -5.07057,10.343803 -3.12189,6.63e-4 -6.78909,0.420927 -10.14609,-0.488658 -2.94914,-0.887177 -3.4564,-3.078111 -3.65479,-4.98976 -0.3676,-4.196457 0.46096,-7.891725 3.91752,-10.022406 5.19756,-0.661723 10.52912,1.48908 14.95393,5.157021 z"
           id="path6207"
           sodipodi:nodetypes="cccccc" />
        <path
           style="fill:#262d33;fill-opacity:1;stroke:none;stroke-width:0.0660857;stroke-linecap:butt;stroke-linejoin:miter;stroke-miterlimit:4;stroke-dasharray:none;stroke-opacity:1"
           d="m -235.9405,74.529377 c 8.82502,-2.723865 15.08918,-2.790886 19.44456,-0.877597 -6.23551,1.913632 -12.45877,3.867436 -18.42555,6.66187 -1.19985,0.513965 -2.38488,0.701572 -3.15967,-0.331546 -0.62829,-0.907374 -0.7803,-2.50508 -0.19373,-3.606059 0.43239,-0.853681 1.2422,-1.502147 2.33439,-1.846668 z"
           id="path2796"
           sodipodi:nodetypes="cccccc" />
        <path
           style="fill:#5a2900;fill-opacity:1;stroke:none;stroke-width:0.0520164;stroke-linecap:butt;stroke-linejoin:miter;stroke-miterlimit:4;stroke-dasharray:none;stroke-opacity:1"
           d="m -235.93538,75.844367 c 6.94621,-2.143965 11.81878,-2.397262 15.24692,-0.891304 -4.908,1.506228 -9.74838,3.244618 -14.44485,5.44413 -0.94441,0.404543 -1.87715,0.55221 -2.48699,-0.260962 -0.49453,-0.714198 -0.61418,-1.971759 -0.15249,-2.838345 0.34034,-0.671935 0.97774,-1.182345 1.83741,-1.453519 z"
           id="path3562"
           sodipodi:nodetypes="cccccc" />
        <path
           id="path3759"
           style="stroke-width:0.0660856"
           d="m -239.8797,76.41509 a 1.5715458,1.6280684 0 0 1 -1.57154,1.628068 1.5715458,1.6280684 0 0 1 -1.57155,-1.628068 1.5715458,1.6280684 0 0 1 1.57155,-1.628069 1.5715458,1.6280684 0 0 1 1.57154,1.628069 z" />
        <path
           id="ellipse3761"
           style="fill:#ffffff;stroke-width:0.0308638"
           d="m -240.23025,75.916194 a 0.73395382,0.76035128 0 0 1 -0.73396,0.760352 0.73395382,0.76035128 0 0 1 -0.73395,-0.760352 0.73395382,0.76035128 0 0 1 0.73395,-0.760351 0.73395382,0.76035128 0 0 1 0.73396,0.760351 z" />
        <path
           style="fill:#000000;stroke:none;stroke-width:0.0660857;stroke-linecap:butt;stroke-linejoin:miter;stroke-miterlimit:4;stroke-dasharray:none;stroke-opacity:1"
           d="m -228.71121,165.30705 c 13.54291,3.95872 25.69218,3.50552 24.27931,-13.72819 -0.76229,4.89354 -2.06894,11.1741 -6.67414,11.35923 -6.21233,0.26813 -12.74948,0.0437 -17.60517,2.36896 z"
           id="path7533"
           sodipodi:nodetypes="cccc" />
        <path
           style="fill:#000000;stroke:none;stroke-width:0.0660857;stroke-linecap:butt;stroke-linejoin:miter;stroke-miterlimit:4;stroke-dasharray:none;stroke-opacity:1"
           d="m -232.01537,173.47397 c 7.17078,-0.41075 20.86188,13.93539 29.30673,-5.94485 -3.32925,3.50277 -6.35927,7.75841 -11.1697,7.53451 -4.3451,-0.1938 -12.19179,-4.36402 -18.13703,-1.58966 z"
           id="path7535"
           sodipodi:nodetypes="cccc" />
        <path
           style="fill:#65686d;fill-opacity:1;stroke:none;stroke-width:0.0660857;stroke-linecap:butt;stroke-linejoin:miter;stroke-miterlimit:4;stroke-dasharray:none;stroke-opacity:1"
           d="m -223.69813,120.65874 c 0.13116,7.28223 1.01132,14.25103 3.04938,21.13982 3.06978,10.51516 4.85408,21.03032 4.66504,31.54548 0.003,2.70033 2.85449,3.99399 3.81259,1.10638 2.06976,-7.12226 1.82693,-14.38498 0.73805,-21.69908 l -0.41507,-3.17438 -1.32888,-6.80824 -4.37347,-13.16801 z"
           id="path5055"
           sodipodi:nodetypes="ccccccccc" />
        <path
           style="fill:#2a2d34;fill-opacity:1;stroke:none;stroke-width:0.0660857;stroke-linecap:butt;stroke-linejoin:miter;stroke-miterlimit:4;stroke-dasharray:none;stroke-opacity:1"
           d="m -229.26561,98.820682 4.48765,23.864388 c 6.34243,6.14073 10.64914,16.45296 13.34489,30.06627 -0.3479,-8.92522 -2.34934,-19.38374 -6.64476,-26.77566 -2.32385,-3.74278 -3.1891,-7.67945 -4.04053,-11.61797 -1.22301,-6.46309 -3.02184,-12.28846 -7.14725,-15.537028 z"
           id="path4218"
           sodipodi:nodetypes="cccccc" />
        <path
           style="fill:#5b2a01;fill-opacity:1;stroke:none;stroke-width:0.269002px;stroke-linecap:butt;stroke-linejoin:miter;stroke-opacity:1"
           d="m -243.40287,146.18755 c -5.68657,-1.34401 -11.35891,-2.22476 -16.89763,1.2463 -2.50075,1.59093 1.46553,7.13589 5.04828,9.45823 2.51102,1.42388 5.05751,2.76918 6.58857,6.36327 2.00778,4.5606 7.97279,4.97898 10.25514,0.79052 1.24652,-2.65845 2.61994,-4.96624 6.97883,-7.74418 3.11999,-1.81574 7.17856,-7.61903 4.90249,-8.91938 -6.79189,-3.29128 -11.82707,-2.22638 -16.87568,-1.19476 z"
           id="path5568"
           sodipodi:nodetypes="cccccccc" />
        <path
           style="fill:#000000;stroke:none;stroke-width:0.0660857;stroke-linecap:butt;stroke-linejoin:miter;stroke-miterlimit:4;stroke-dasharray:none;stroke-opacity:1"
           d="m -290.20765,112.61045 c -1.64982,10.0876 -0.0361,17.99522 12.64468,21.0774 -4.01579,0.54541 -10.78845,1.39341 -14.99839,-5.02686 -4.14392,-7.03454 -0.58531,-11.87737 2.35371,-16.05054 z"
           id="path8350"
           sodipodi:nodetypes="cccc" />
        <path
           style="fill:#000000;stroke:none;stroke-width:0.0660857;stroke-linecap:butt;stroke-linejoin:miter;stroke-miterlimit:4;stroke-dasharray:none;stroke-opacity:1"
           d="m -196.54855,112.61045 c 1.64981,10.0876 0.0361,17.99522 -12.6447,21.0774 4.01579,0.54541 10.78845,1.39341 14.99839,-5.02686 4.14392,-7.03454 0.58531,-11.87737 -2.35369,-16.05054 z"
           id="path8830"
           sodipodi:nodetypes="cccc" />
        <path
           id="path8854"
           style="fill:#ffffff;fill-opacity:0.994046;stroke-width:0.0749985"
           d="m -266.87445,108.59472 a 5.554367,5.554367 0 0 1 -5.55437,5.55437 5.554367,5.554367 0 0 1 -5.55437,-5.55437 5.554367,5.554367 0 0 1 5.55437,-5.55437 5.554367,5.554367 0 0 1 5.55437,5.55437 z" />
        <path
           id="circle9582"
           style="fill:#ffffff;fill-opacity:0.994046;stroke-width:0.0749985"
           d="m -219.80527,108.59472 a 5.554367,5.554367 0 0 0 5.55437,5.55437 5.554367,5.554367 0 0 0 5.55436,-5.55437 5.554367,5.554367 0 0 0 -5.55436,-5.55437 5.554367,5.554367 0 0 0 -5.55437,5.55437 z" />
        <path
           style="fill:#000000;stroke:none;stroke-width:0.0660857;stroke-linecap:butt;stroke-linejoin:miter;stroke-miterlimit:4;stroke-dasharray:none;stroke-opacity:1"
           d="m -281.04621,98.571559 c 4.82405,-2.099349 8.93216,-1.100022 12.18005,1.915341 -1.27453,-3.444381 -2.8919,-8.814464 -7.07114,-9.051722 -3.46283,-0.02542 -4.77925,4.499043 -5.10891,7.136381 z"
           id="path9617"
           sodipodi:nodetypes="cccc" />
        <path
           style="fill:#000000;stroke:none;stroke-width:0.0660857;stroke-linecap:butt;stroke-linejoin:miter;stroke-miterlimit:4;stroke-dasharray:none;stroke-opacity:1"
           d="m -205.39799,98.571559 c -4.82405,-2.099349 -8.93217,-1.100022 -12.18005,1.915341 1.27452,-3.444381 2.8919,-8.814464 7.07114,-9.051722 3.46283,-0.02542 4.77925,4.499043 5.10891,7.136381 z"
           id="path10402"
           sodipodi:nodetypes="cccc" />
        <path
           style="fill:#000000;stroke:none;stroke-width:0.0660857;stroke-linecap:butt;stroke-linejoin:miter;stroke-miterlimit:4;stroke-dasharray:none;stroke-opacity:1"
           d="m -269.74883,81.070332 c 4.15625,-8.250517 12.97616,-11.325721 23.48927,-10.039315 -3.30165,2.100604 -7.57109,2.916909 -13.48611,4.878287 -3.46644,1.197176 -7.08186,2.486704 -10.00316,5.161028 z"
           id="path10437"
           sodipodi:nodetypes="cccc" />
        <path
           style="fill:#000000;stroke:none;stroke-width:0.0660857;stroke-linecap:butt;stroke-linejoin:miter;stroke-miterlimit:4;stroke-dasharray:none;stroke-opacity:1"
           d="m -258.8767,66.736703 c 2.5846,-4.702036 7.38142,-5.462307 12.46576,-5.710262 -1.58938,2.208699 -3.96835,3.206863 -6.67585,3.954095 -2.71014,0.801397 -4.04859,0.627629 -5.78991,1.756167 z"
           id="path11066"
           sodipodi:nodetypes="cccc" />
        <path
           style="fill:#000000;stroke:none;stroke-width:0.0660857;stroke-linecap:butt;stroke-linejoin:miter;stroke-miterlimit:4;stroke-dasharray:none;stroke-opacity:1"
           d="m -227.66431,66.736703 c -2.5846,-4.702036 -7.38142,-5.462307 -12.46576,-5.710262 1.58938,2.208699 3.96834,3.206863 6.67584,3.954095 2.71015,0.801397 4.04859,0.627629 5.78992,1.756167 z"
           id="path11683"
           sodipodi:nodetypes="cccc" />
        <path
           style="fill:#ffffff;stroke:none;stroke-width:0.269002px;stroke-linecap:butt;stroke-linejoin:miter;stroke-opacity:1"
           d="m -305.45022,85.020997 c 2.70607,-5.375311 6.97306,-6.593505 11.26537,-8.378515 5.82344,-2.309434 8.31579,-3.505002 9.94316,-7.158987 -7.74019,-5.875245 -15.13168,-15.908976 -23.39832,-19.93108 -5.19356,4.153566 -5.15928,10.394717 -3.52038,17.261538 1.48824,6.171617 2.94992,12.349801 5.71017,18.207044 z"
           id="path11718"
           sodipodi:nodetypes="cccccc" />
        <path
           style="fill:#ffffff;stroke:none;stroke-width:0.269002px;stroke-linecap:butt;stroke-linejoin:miter;stroke-opacity:1"
           d="m -180.87717,85.020997 c -2.70606,-5.375311 -6.97305,-6.593505 -11.26535,-8.378515 -5.82344,-2.309434 -8.3158,-3.505002 -9.94317,-7.158987 7.74019,-5.875245 15.13168,-15.908976 23.39832,-19.93108 5.19356,4.153566 5.15928,10.394717 3.52037,17.261538 -1.48824,6.171617 -2.9499,12.349801 -5.71017,18.207044 z"
           id="path13340"
           sodipodi:nodetypes="cccccc" />
        <path
           style="fill:#f59412;fill-opacity:1;stroke:none;stroke-width:0.269002px;stroke-linecap:butt;stroke-linejoin:miter;stroke-opacity:1"
           d="m -268.94065,193.0589 c 9.82679,0.81116 14.51064,-9.22078 25.65642,-7.57042 11.52894,-2.81307 15.14182,8.85576 25.40997,7.24128 -2.75997,4.99884 -0.029,17.63558 -16.47661,19.95425 -7.20888,0.97517 -12.96128,0.36588 -20.15397,-0.54406 -13.52054,-1.91508 -10.42354,-11.5872 -14.43581,-19.08105 z"
           id="path14165"
           sodipodi:nodetypes="cccccc" />
        <path
           id="path13375"
           style="fill:#000000;stroke:none;stroke-width:0.0660856;stroke-linecap:butt;stroke-linejoin:miter;stroke-miterlimit:4;stroke-dasharray:none;stroke-opacity:1"
           d="m -236.7961,185.40896 -0.12557,7.56201 c -3.01143,2.13689 -3.7432,4.63656 -3.39405,7.30826 3.21339,-2.2842 5.70461,-0.64725 8.23348,0.78651 0.64663,-1.13089 1.15938,-2.24564 2.4247,-3.45027 l 1.79738,0.50543 c 1.80434,0.48858 1.2504,-2.04224 0.18441,-3.20491 -1.58299,-1.7565 -3.28464,-2.55531 -5.00124,-3.23276 l -0.37934,-4.80474 c -1.16997,-0.622 -2.39936,-1.14433 -3.73977,-1.46953 z m -11.44679,0.10297 c -1.34991,0.22285 -2.60459,0.61216 -3.79862,1.10175 l -0.82172,6.03732 c -3.24317,1.76551 -4.26575,4.16112 -4.23521,6.85538 3.46113,-1.88789 5.74126,0.0329 8.08269,1.75586 0.77591,-1.04643 1.41714,-2.09281 2.81612,-3.13924 l 1.72488,0.71454 c 1.73384,0.69867 1.48308,-1.88013 0.56217,-3.16078 -1.364,-1.93149 -2.95918,-2.92593 -4.58355,-3.80177 z" />
      </g>
    </g>
  </g>
</svg>
